<svg xmlns="http://www.w3.org/2000/svg" viewBox="0 0 163 56" width="151" height="52"><path fill-rule="evenodd" d="M31.2 13.5l10 5.3c1.3.8 2.1 2.1 2.1 3.6v22.7c0 1.4-.7 2.6-1.8 3.4l-10.6 6.8c-1.3.9-2.9.9-4.2.2l-8.5-4.6 14.6-8.8.1-17-11-5.8zM24.7 42l2.4 1.2-9.3 5.7-2.4-1.2zm-1.6-4.1l2.4 1.2-9.3 5.7-2.5-1.2zm80.8-25.3q3.5 0 6.4 1.2 2.9 1.2 5.1 3.2 2.1 2 3.3 4.8 1.1 2.7 1.1 5.9 0 3.2-1.1 5.9-1.2 2.8-3.3 4.8-2.2 2.1-5.1 3.2-2.9 1.2-6.4 1.2-3.5 0-6.4-1.2-2.9-1.1-5-3.2-2.1-2-3.3-4.8-1.2-2.7-1.2-5.9 0-3.2 1.2-5.9 1.2-2.8 3.3-4.8 2.1-2 5-3.2 2.9-1.2 6.4-1.2zM17.1.6l8.1 4.3-14.6 8.9-.1 16.9 11 5.9-9.3 5.8-9.6-5.2C1 36.4.1 34.7.1 33V11.2C.1 9.6.9 8 2.3 7.1L12.1.8c1.5-1 3.4-1.1 5-.2zm53.3 12.9q2.9 0 5.5 1.2 2.6 1.2 4.5 3.1 1.9 2 3 4.6 1.1 2.6 1.1 5.5 0 2.8-1.1 5.4-1.1 2.6-3 4.6-1.9 1.9-4.5 3.1-2.5 1.2-5.5 1.2h-9.3c-.9 0-1.7-.8-1.7-1.7V15.3c0-1 .8-1.8 1.7-1.8zm60 0c1 0 1.7.8 1.7 1.8v25.2c0 .9-.7 1.7-1.7 1.7h-4.1c-1 0-1.8-.8-1.8-1.7V15.3a1.79 1.79 0 0 1 1.8-1.8zm18.6 0q2.9 0 5.5 1.2 2.6 1.2 4.5 3.1 1.9 2 3 4.6 1.1 2.6 1.1 5.5 0 2.8-1.1 5.4-1.1 2.6-3 4.6-1.9 1.9-4.5 3.1-2.5 1.2-5.5 1.2h-9.3c-.9 0-1.7-.8-1.7-1.7V15.3c0-1 .8-1.8 1.7-1.8zm-45.3 6.4q-1.6 0-3.1.6-1.4.6-2.5 1.6-1.1 1.1-1.8 2.6-.6 1.4-.6 3.2 0 1.7.6 3.1.7 1.5 1.8 2.6 1.1 1 2.5 1.6 1.5.6 3.1.6 1.6 0 3.1-.6 1.4-.6 2.5-1.6 1.2-1.1 1.8-2.6.6-1.4.6-3.1 0-1.8-.6-3.2-.6-1.5-1.8-2.6-1.1-1-2.5-1.6-1.5-.6-3.1-.6zm-35.2-.3h-.6c-.6 0-1.1.5-1.1 1.2v13.6a1.11 1.11 0 0 0 1.1 1.1h.6q1.9 0 3.5-.6 1.5-.6 2.5-1.6 1.1-1.1 1.6-2.5.6-1.5.6-3.2 0-1.7-.6-3.2-.5-1.5-1.6-2.5-1-1.1-2.6-1.7-1.5-.6-3.4-.6zm78.8 0h-.5c-.7 0-1.2.5-1.2 1.2v13.6c0 .6.5 1.1 1.2 1.1h.5q2 0 3.5-.6 1.5-.6 2.6-1.6 1-1.1 1.6-2.5.5-1.5.5-3.2 0-1.7-.5-3.2-.6-1.5-1.7-2.5-1-1.1-2.5-1.7-1.6-.6-3.5-.6zM28.5 10.2l2.4 1.2-9.3 5.7-2.4-1.2zm-1.7-4.1l2.5 1.3-9.3 5.7-2.5-1.3z" fill="#373737"/></svg>